<svg xmlns="http://www.w3.org/2000/svg" viewBox="0 0 988.37 781.41"><defs><style>.cls-1{fill:#c94949;}.cls-2{fill:#e0604f;}</style></defs><title>Ativo 3wr</title><g id="Camada_2" data-name="Camada 2"><g id="Camada_1-2" data-name="Camada 1"><g id="Objects"><path class="cls-1" d="M577,230.22C625.43,270.5,713,300,779.74,303.59c26.74,1.43,54.63-.65,78.13-11.89,23.33-11.15,40.53-30.67,50.46-52.23s13.07-45.12,13-68.36c-.09-26.44-4.68-53.92-21.61-75.84-24.33-31.5-71.48-45.91-114.63-41.21s-82.16,26.12-112.47,53.36-74,78-95.66,110.93l-46-18c30.64-46.61,55.68-88.24,98.56-126.78S728.1,7.83,789.15,1.18s134.23,15,168.65,59.53c24,31,30.45,69.89,30.57,107.3.11,32.88-4.34,66.2-18.39,96.7s-38.37,58.12-71.39,73.9c-33.25,15.9-72.69,18.85-110.52,16.82-94.46-5.08-186.44-40.09-255-97.07Z"/><path class="cls-1" d="M405.23,222.58c-47.74,38.94-134,67.46-199.73,70.93-26.34,1.39-53.81-.63-76.95-11.49s-39.93-29.66-49.71-50.5S66,187.9,66,165.43c.08-25.56,4.61-52.13,21.28-73.33,24-30.44,70.41-44.38,112.91-39.84S281.15,77.52,311,103.86s72.89,75.39,94.22,107.24l45.3-17.41c-30.17-45.07-54.84-85.31-97.08-122.57s-97.09-63.55-157.22-70S64,15.62,30.11,58.7C6.52,88.68.12,126.27,0,162.43c-.11,31.79,4.27,64,18.11,93.49s37.8,56.19,70.32,71.45c32.75,15.37,71.61,18.22,108.87,16.26,93-4.91,183.63-38.76,251.17-93.84Z"/><path class="cls-1" d="M478.35,245c5.14,187-54.65,375.23-161.07,509.78a355.08,355.08,0,0,0-95.5-112.75c108.8-93.83,184.38-227.18,210-370.43Z"/><path class="cls-1" d="M544.55,273c22.75,150.72,90,291,186.68,389.75-34.78,31.71-63.91,72.45-84.9,118.63C551.7,639.84,498.54,441.8,503.12,245Z"/><path class="cls-2" d="M600.06,245.79c-3.13,17.89-8.69,37.71-21.35,46.6-19.32,13.58-53.23,15.14-88,15.14s-68.63-1.56-88-15.14c-12.65-8.89-18.22-28.71-21.35-46.6s-2.95-36.43-2.75-54.76c.27-26.3,1.13-54.73,14.07-75.29,9.15-14.55,23.29-23,37.69-26.61S469.73,84,490.75,84s45.9,1.5,60.3,5.14,28.54,12.06,37.7,26.61c12.94,20.56,13.79,49,14.07,75.29C603,209.36,603.19,227.88,600.06,245.79Z"/></g></g></g></svg>