<svg xmlns="http://www.w3.org/2000/svg" viewBox="0 0 595.04 749.54"><defs><style>.cls-1{fill:#b6c7cc;}.cls-2{fill:#dd9a58;}.cls-3{fill:#efb560;}.cls-4{fill:#ad364b;}</style></defs><title>Ativo 2</title><g id="Camada_2" data-name="Camada 2"><g id="Objects"><path class="cls-1" d="M313,729.19c-29.38-2.49-83.06-12.25-83.06-50.44V421a112.34,112.34,0,0,1,27.81-74c64-73.13,142.65-153.53,175.67-187.15a9.51,9.51,0,0,0-6.78-16.17H9.52a9.5,9.5,0,0,0-6.76,16.18c33.06,33.52,111.59,113.52,175.55,186.5a112.36,112.36,0,0,1,27.85,74V678.75c0,38.19-53.7,48-83.07,50.44a20.41,20.41,0,0,0-15,8.58,7.49,7.49,0,0,0,6.16,11.77H321.77a7.49,7.49,0,0,0,6.15-11.77A20.37,20.37,0,0,0,313,729.19ZM214.26,358.9C164.49,303,101.79,236.46,27.4,160.71H408.76C369.05,201.28,291.37,281.32,222.43,358.9Z"/><path class="cls-2" d="M581.69,80.94A140.47,140.47,0,0,0,322.4,92.75a141.17,141.17,0,0,0-8,36.69h17.9a123.75,123.75,0,0,1,6.87-30.62A122.64,122.64,0,1,1,506.53,251.6a123,123,0,0,1-127.76-14.5q-6.27,6.56-12.35,13A140.47,140.47,0,0,0,581.69,80.94Z"/><path class="cls-3" d="M505.4,43.73a109.28,109.28,0,0,0-84.61-7.26,6.61,6.61,0,0,0-4,9.09l33.86,72.26a6.6,6.6,0,0,0,11.39,1l45.65-65.45A6.6,6.6,0,0,0,505.4,43.73Z"/><path class="cls-3" d="M396.08,48.05a109.27,109.27,0,0,0-48.57,69.67,6.6,6.6,0,0,0,5.9,8l79.5,6.8a6.6,6.6,0,0,0,6.54-9.38L405.59,50.83A6.61,6.61,0,0,0,396.08,48.05Z"/><path class="cls-3" d="M446.89,162.3l-45.64,65.46a6.6,6.6,0,0,0,2.34,9.62,109.36,109.36,0,0,0,84.61,7.25,6.62,6.62,0,0,0,3.95-9.09l-33.87-72.26A6.6,6.6,0,0,0,446.89,162.3Z"/><path class="cls-3" d="M512.91,233.05a109.3,109.3,0,0,0,48.56-69.66,6.6,6.6,0,0,0-5.89-8l-79.51-6.8a6.6,6.6,0,0,0-6.54,9.37l33.87,72.27A6.61,6.61,0,0,0,512.91,233.05Z"/><path class="cls-3" d="M563.82,136.24a109.78,109.78,0,0,0-36.06-77,6.6,6.6,0,0,0-9.82,1.14l-45.66,65.48a6.6,6.6,0,0,0,4.85,10.35l79.53,6.8A6.6,6.6,0,0,0,563.82,136.24Z"/><path class="cls-4" d="M277.87,197.72c-22.91-2-45.36-6.66-67.91-10.86-12.62-2.35-25.26-4.56-38-6.09-33.64-4.05-69.76-2.87-99.21,11.8l2.16,2.23c55.35,57.14,103.48,108.61,143.44,153.35C262,299.19,315,242.56,376.09,179.61,348.41,197.15,311.86,200.72,277.87,197.72Z"/></g></g></svg>